<svg width="110" height="83" viewBox="0 0 110 83" fill="none" xmlns="http://www.w3.org/2000/svg">
<g clip-path="url(#clip0_122_374)">
<path d="M53.57 -9.76585e-06C59.61 6.78999 63.81 14.26 65.33 23.09C65.44 23.75 65.17 24.48 65.09 25.02C65.29 25.36 65.6 25.65 65.62 25.96C66.27 36.04 63.61 45.06 56.91 52.75C55.59 54.27 54.26 55.78 52.87 57.37C44.69 49.98 40.15 40.88 40.03 29.86C39.9 17.91 45.27 8.33999 53.57 -0.0100098V-9.76585e-06Z" fill="white"/>
<path d="M92.17 17.24C91.6 22.56 91.08 27.76 89.52 32.79C87.58 39.06 84.74 44.82 80.03 49.48C75.79 53.68 70.58 56.01 64.73 56.93C61.58 57.42 58.42 57.8 55.16 58.25C56.55 56.73 57.97 55.38 59.15 53.84C65.4 45.71 68.62 36.55 67.88 26.25C67.73 24.19 68.43 23.4 70 22.5C75.9 19.12 82.12 17.15 88.99 17.52C89.51 17.55 90.04 17.54 90.56 17.5C91.03 17.46 91.5 17.35 92.16 17.25L92.17 17.24Z" fill="white"/>
<path d="M13.14 16.5901C15.58 16.9101 18 17.1301 20.39 17.5501C26.09 18.5501 31.52 20.4501 36.82 22.7601C38.1 23.3201 38.47 24.0501 38.31 25.4501C37.14 36.2501 39.97 45.9501 46.56 54.5701C46.71 54.7701 46.86 54.9801 47.21 55.4901C37.94 52.8801 30.31 48.3001 24.14 41.2901C17.95 34.2601 15.29 25.6701 13.14 16.5901Z" fill="white"/>
<path d="M0 41.0099C4.9 37.9799 10.54 36.97 16.33 36.45C17.18 36.37 17.82 36.4 18.4 37.3C25.71 48.6699 35.97 55.65 49.33 58.04C50.27 58.21 51.09 59.0399 51.88 59.7599C30.78 63.9199 13.64 57.0699 0 41.0099Z" fill="white"/>
<path d="M58.74 59.5901C66.7 59.3001 73.74 57.2801 79.68 52.3601C85.61 47.4501 88.94 40.8701 91.25 33.6001C97.59 33.9501 103.43 35.9401 109.05 38.7301C97.62 56.1401 80.18 64.6301 58.74 59.5901Z" fill="white"/>
<path d="M79.39 77.16C71.53 75.83 64.42 73.33 58.73 67.75C57.32 66.37 55.99 64.92 54.58 63.55C53.98 62.97 53.56 62.26 54.22 61.68C54.75 61.21 55.7 60.85 56.37 60.98C59.02 61.48 61.6 62.34 64.25 62.78C66.39 63.14 68.61 63.05 70.78 63.26C71.35 63.32 72.04 63.61 72.41 64.03C75.73 67.8 77.73 72.29 79.41 77.17L79.39 77.16Z" fill="white"/>
<path d="M28.5 75.49C28.99 71.07 29.83 66.86 32.74 63.39C33.02 63.05 33.62 62.72 34.01 62.78C40.28 63.71 46.46 63.24 52.6 61.72C49.33 68.54 36.15 76.12 28.5 75.49Z" fill="white"/>
<path d="M42.27 11.7699C40.94 15.5199 39.75 18.8699 38.63 22.0499C34.7 20.4199 30.56 18.6999 26.36 16.9599C27.48 13.2199 28.67 9.19993 29.95 4.92993C34.23 7.29993 38.33 9.57993 42.28 11.7699H42.27Z" fill="white"/>
<path d="M53.31 63.6399C54.67 65.4499 55.84 67.2599 57.27 68.8399C58.67 70.3899 60.32 71.7099 62.03 73.2799C59.5 76.2299 56.9 79.2599 54.26 82.3399C50.27 79.5999 47.23 76.2399 44.49 72.3899C48.27 70.1899 51.36 67.4299 53.32 63.6399H53.31Z" fill="white"/>
<path d="M64.38 11.7801C68.02 9.51006 71.86 7.12006 75.95 4.56006C77.82 8.55006 78.48 12.5101 79.16 16.2101C75.11 18.1201 71.27 19.9201 67.53 21.6801C66.59 18.7301 65.54 15.4201 64.37 11.7701L64.38 11.7801Z" fill="white"/>
</g>
<defs>
<clipPath id="clip0_122_374">
<rect width="109.06" height="82.34" fill="white"/>
</clipPath>
</defs>
</svg>
