<svg width="355" height="117" viewBox="0 0 355 117" fill="none" xmlns="http://www.w3.org/2000/svg">
<g clip-path="url(#clip0_122_291)">
<path d="M16.3304 110.731L13.5854 105.884H12.2478L15.7314 112.02V116.72H16.9003V112.02L20.3839 105.884H19.058L16.3304 110.731Z" fill="white"/>
<path d="M53.2192 107.243C52.754 106.736 52.2015 106.333 51.5676 106.042C50.2823 105.459 48.6307 105.459 47.3512 106.042C46.7173 106.328 46.159 106.736 45.6937 107.243C45.2343 107.745 44.8737 108.351 44.6178 109.039C44.362 109.722 44.234 110.486 44.234 111.302C44.234 112.119 44.362 112.877 44.6178 113.565C44.8737 114.253 45.2343 114.86 45.6937 115.361C46.159 115.869 46.7173 116.277 47.357 116.563C48.0026 116.854 48.7121 117 49.4565 117C50.2009 117 50.9104 116.854 51.5559 116.563C52.1957 116.277 52.754 115.869 53.2192 115.361C53.6787 114.86 54.0392 114.253 54.2951 113.565C54.551 112.883 54.6789 112.119 54.6789 111.302C54.6789 110.486 54.551 109.728 54.2951 109.039C54.0392 108.351 53.6728 107.745 53.2192 107.243ZM49.4565 106.689C50.038 106.689 50.5789 106.806 51.0674 107.033C51.5618 107.267 51.9921 107.587 52.3527 107.996C52.7133 108.41 53.004 108.899 53.2018 109.459C53.4053 110.025 53.51 110.643 53.51 111.296C53.51 111.95 53.4111 112.568 53.2076 113.133C53.0099 113.693 52.7249 114.189 52.3701 114.597C52.0212 115.005 51.5908 115.326 51.0965 115.56C50.1253 116.014 48.7935 116.014 47.8223 115.56C47.3279 115.326 46.8976 115.005 46.5486 114.597C46.1881 114.183 45.9089 113.693 45.7112 113.133C45.5135 112.568 45.4088 111.95 45.4088 111.296C45.4088 110.643 45.5135 110.025 45.717 109.459C45.9206 108.899 46.2055 108.404 46.5661 107.996C46.9267 107.587 47.357 107.261 47.8514 107.033C48.3399 106.806 48.8807 106.689 49.4623 106.689H49.4565Z" fill="white"/>
<path d="M85.4322 112.031H87.8515V115.326C87.5258 115.478 87.1769 115.612 86.8047 115.717C85.8567 115.991 84.4668 116.003 83.5014 115.56C82.9896 115.32 82.5476 114.994 82.187 114.586C81.8265 114.166 81.5415 113.67 81.3496 113.11C81.1519 112.539 81.053 111.92 81.053 111.273C81.053 110.626 81.1518 110.019 81.3554 109.459C81.5531 108.905 81.8381 108.415 82.1987 108.001C82.5592 107.593 82.9896 107.272 83.4956 107.039C84.1702 106.73 84.9495 106.596 85.8684 106.759C86.1126 106.8 86.3569 106.87 86.5837 106.952C86.8163 107.039 87.0373 107.144 87.2467 107.261C87.4444 107.377 87.6189 107.511 87.7701 107.663L88.1074 108.007L88.9158 107.144L88.6192 106.882C88.1772 106.491 87.6654 106.176 87.0896 105.949C85.8567 105.459 84.24 105.494 83.0129 106.042C82.3615 106.328 81.7974 106.736 81.3321 107.243C80.8727 107.745 80.5121 108.351 80.262 109.045C80.012 109.728 79.884 110.48 79.884 111.273C79.884 112.066 80.0062 112.819 80.2562 113.501C80.5063 114.189 80.8669 114.801 81.3263 115.32C81.7916 115.839 82.3673 116.254 83.0245 116.551C83.6875 116.854 84.4319 117.006 85.2344 117.006C86.037 117.006 86.7233 116.907 87.3281 116.714C87.9213 116.528 88.4214 116.312 88.8169 116.079L89.0205 115.962V110.964H85.4264V112.043L85.4322 112.031Z" fill="white"/>
<path d="M118.698 105.884L118.465 105.284L118.227 105.884H117.977L113.615 116.72H114.871L116.017 113.845H120.797L121.902 116.72H123.158L118.965 105.884H118.692H118.698ZM116.447 112.766L118.453 107.692L120.402 112.766H116.447Z" fill="white"/>
<path d="M180.216 111.763C179.931 111.53 179.594 111.331 179.21 111.168C178.861 111.016 178.483 110.871 178.082 110.725C177.802 110.626 177.529 110.515 177.262 110.398C177.029 110.293 176.814 110.159 176.628 110.002C176.453 109.85 176.308 109.663 176.203 109.442C176.098 109.226 176.046 108.952 176.046 108.62C176.046 108.287 176.11 107.996 176.226 107.756C176.348 107.511 176.506 107.319 176.703 107.162C176.907 107.004 177.134 106.882 177.378 106.806C177.994 106.613 178.651 106.654 179.198 106.917C179.518 107.068 179.774 107.278 179.977 107.558L180.286 107.972L181.141 107.162L180.937 106.893C180.623 106.479 180.216 106.158 179.727 105.931C178.849 105.534 177.808 105.505 176.93 105.803C176.535 105.937 176.174 106.135 175.872 106.392C175.563 106.648 175.319 106.975 175.139 107.348C174.964 107.721 174.871 108.153 174.871 108.62C174.871 109.086 174.947 109.506 175.092 109.85C175.244 110.2 175.459 110.503 175.732 110.754C176 110.999 176.314 111.203 176.674 111.366C177.006 111.518 177.372 111.664 177.779 111.804C178.076 111.903 178.372 112.014 178.663 112.136C178.925 112.247 179.163 112.387 179.367 112.55C179.559 112.702 179.722 112.888 179.844 113.11C179.96 113.32 180.018 113.582 180.018 113.903C180.018 114.224 179.96 114.527 179.85 114.772C179.733 115.023 179.588 115.221 179.396 115.385C179.204 115.548 178.977 115.682 178.727 115.769C178.116 115.985 177.384 115.939 176.732 115.653C176.354 115.49 176.017 115.233 175.726 114.895L175.412 114.527L174.575 115.32L174.802 115.595C175.156 116.02 175.604 116.358 176.145 116.609C176.686 116.86 177.285 116.988 177.93 116.988C178.361 116.988 178.774 116.918 179.169 116.784C179.57 116.644 179.925 116.44 180.228 116.166C180.524 115.898 180.763 115.571 180.937 115.186C181.112 114.801 181.199 114.37 181.199 113.892C181.199 113.413 181.112 112.988 180.943 112.644C180.774 112.294 180.53 111.99 180.228 111.745L180.216 111.763Z" fill="white"/>
<path d="M205.468 106.975H208.637V116.72H209.806V106.975H212.976V105.884H205.468V106.975Z" fill="white"/>
<path d="M244.59 112.463C244.59 112.859 244.549 113.273 244.479 113.693C244.409 114.09 244.27 114.469 244.06 114.807C243.857 115.134 243.583 115.396 243.217 115.606C242.868 115.81 242.38 115.909 241.781 115.909C241.182 115.909 240.67 115.804 240.321 115.595C239.954 115.373 239.681 115.11 239.478 114.778C239.274 114.44 239.134 114.067 239.07 113.664C239.001 113.238 238.966 112.836 238.966 112.457V105.879H237.791V112.515C237.791 113.11 237.855 113.676 237.989 114.195C238.123 114.737 238.349 115.221 238.663 115.63C238.983 116.049 239.408 116.388 239.92 116.627C240.437 116.866 241.059 116.988 241.786 116.988C242.513 116.988 243.136 116.866 243.653 116.627C244.165 116.382 244.59 116.049 244.909 115.63C245.223 115.221 245.45 114.737 245.584 114.195C245.712 113.67 245.782 113.104 245.782 112.515V105.879H244.607V112.457L244.59 112.463Z" fill="white"/>
<path d="M278.762 107.197C278.251 106.747 277.646 106.409 276.965 106.199C276.297 105.989 275.57 105.89 274.808 105.89H271.725V116.726H274.808C275.57 116.726 276.297 116.615 276.965 116.405C277.652 116.189 278.251 115.851 278.762 115.402C279.268 114.953 279.67 114.381 279.955 113.699C280.234 113.028 280.379 112.224 280.379 111.308C280.379 110.392 280.24 109.588 279.955 108.917C279.67 108.229 279.268 107.657 278.757 107.202L278.762 107.197ZM272.894 106.975H274.732C275.366 106.975 275.971 107.057 276.523 107.226C277.058 107.383 277.529 107.64 277.919 107.978C278.309 108.316 278.623 108.765 278.855 109.308C279.088 109.856 279.204 110.532 279.204 111.308C279.204 112.084 279.088 112.754 278.855 113.297C278.623 113.833 278.309 114.276 277.919 114.621C277.529 114.959 277.058 115.215 276.523 115.379C275.971 115.548 275.366 115.635 274.738 115.635H272.9V106.981L272.894 106.975Z" fill="white"/>
<path d="M307.207 105.884H306.032V116.72H307.207V105.884Z" fill="white"/>
<path d="M342.921 109.039C342.665 108.351 342.299 107.745 341.845 107.243C341.386 106.736 340.827 106.333 340.193 106.042C338.908 105.459 337.256 105.459 335.971 106.042C335.337 106.328 334.779 106.736 334.314 107.243C333.854 107.745 333.494 108.351 333.238 109.039C332.982 109.722 332.854 110.48 332.854 111.302C332.854 112.125 332.982 112.883 333.238 113.565C333.494 114.253 333.86 114.86 334.314 115.361C334.779 115.869 335.337 116.277 335.977 116.563C336.623 116.854 337.332 117 338.076 117C338.821 117 339.53 116.854 340.182 116.563C340.821 116.277 341.38 115.869 341.845 115.361C342.304 114.86 342.665 114.253 342.921 113.565C343.177 112.883 343.305 112.119 343.305 111.302C343.305 110.486 343.177 109.728 342.921 109.039ZM342.136 111.302C342.136 111.955 342.037 112.574 341.833 113.139C341.636 113.699 341.351 114.195 340.996 114.603C340.641 115.011 340.217 115.332 339.722 115.565C338.745 116.02 337.419 116.02 336.448 115.565C335.954 115.332 335.523 115.011 335.174 114.603C334.814 114.189 334.535 113.699 334.337 113.139C334.139 112.574 334.035 111.955 334.035 111.302C334.035 110.649 334.139 110.031 334.343 109.465C334.546 108.905 334.831 108.41 335.192 108.001C335.552 107.593 335.983 107.267 336.477 107.039C336.966 106.812 337.507 106.695 338.088 106.695C338.67 106.695 339.211 106.812 339.699 107.039C340.193 107.272 340.624 107.593 340.984 108.001C341.345 108.41 341.636 108.905 341.833 109.465C342.037 110.031 342.142 110.649 342.142 111.302H342.136Z" fill="white"/>
<path d="M153.301 88.6685C154.115 89.2867 155.052 89.6425 156.11 89.7241C157.163 89.8116 158.221 89.7999 159.274 89.7008C159.646 89.6658 160.006 89.6308 160.344 89.5958V90.6805H116.453V89.5958C116.79 89.6308 117.133 89.6658 117.471 89.7008C118.558 89.8058 119.622 89.8116 120.658 89.7241C121.693 89.6366 122.623 89.2867 123.438 88.6685C125.444 86.849 126.77 84.7145 127.421 82.2709C128.067 79.8273 128.393 77.8328 128.393 76.2874V19.6536C128.084 15.0114 126.834 11.9263 124.641 10.3925C122.449 8.86452 119.803 8.34548 116.709 8.84702C113.615 9.34857 110.533 10.3167 107.474 11.763C104.415 13.2093 101.844 14.5915 99.7678 15.9153C97.6916 17.2392 96.6041 17.9507 96.4994 18.0556C95.9178 18.5397 95.2665 19.0879 94.5337 19.7061C93.8009 20.3242 93.0681 20.9366 92.3412 21.5373C91.6084 22.138 90.7651 22.8378 89.8172 23.6251C89.8172 23.7301 89.8346 24.0917 89.8695 24.7098C89.9044 25.328 89.9451 26.0337 89.9975 26.8268C90.0498 27.62 90.0905 28.314 90.1254 28.9147C90.1603 29.5154 90.1777 29.8361 90.1777 29.8711V76.7597C90.2126 78.3752 90.5616 80.3347 91.2246 82.6383C91.8876 84.9419 93.1728 86.9539 95.0745 88.6744C95.8887 89.2925 96.8251 89.6483 97.8835 89.7299C98.9361 89.8174 99.9946 89.8058 101.047 89.7066C101.385 89.6716 101.728 89.6366 102.071 89.6016V90.6864H58.2323V89.6016C58.5696 89.6366 58.9127 89.6716 59.25 89.7066C60.3027 89.8116 61.3611 89.8174 62.4137 89.7299C63.4664 89.6425 64.4027 89.2925 65.2227 88.6744C66.9209 87.1989 68.1247 85.4435 68.8226 83.414C69.5205 81.3845 69.9218 79.5474 70.0206 77.897V77.8445C70.0555 77.7745 70.073 77.7104 70.073 77.6404V68.77C70.073 63.1655 70.0788 56.6863 70.0962 49.3264C70.1137 41.9665 70.1195 32.548 70.1195 21.0591V19.6652C70.0148 17.2217 69.6077 15.2271 68.8982 13.6817C67.6711 11.104 65.8624 9.55269 63.4606 9.03948C61.0587 8.52627 58.4417 8.6604 55.6036 9.45354C52.7597 10.2467 50.0322 11.3081 47.4151 12.6494C44.7923 13.9908 42.6347 15.2096 40.9307 16.3119C39.2267 17.4141 38.3427 18.0148 38.2787 18.1198C36.1037 19.8402 33.9751 21.6248 31.8989 23.4851V76.3049C31.8989 77.8503 32.2188 79.8448 32.8702 82.2884C33.5157 84.732 34.8417 86.8606 36.8481 88.686C37.6623 89.3392 38.5928 89.7008 39.628 89.7708C40.6632 89.8407 41.7274 89.8232 42.8149 89.7183C43.1523 89.6833 43.4954 89.6658 43.8385 89.6658V90.698H0V89.6658C0.337309 89.6658 0.680433 89.6833 1.02356 89.7183C2.07619 89.8232 3.13464 89.8407 4.18728 89.7708C5.23992 89.7008 6.17624 89.3392 6.99625 88.686C8.96776 86.8956 10.2763 84.7845 10.9276 82.3409C11.5732 79.8973 11.8989 77.9028 11.8989 76.3573V20.4759C11.7651 18.8604 11.3522 17.6707 10.6718 16.9184C9.99132 16.1603 9.21783 15.6704 8.3513 15.4488C7.48476 15.2271 6.7171 15.1455 6.05411 15.2155C5.39112 15.2855 5.00729 15.338 4.90842 15.3729V14.2882C7.25795 14.3932 9.58422 14.0841 11.8989 13.3609C14.5857 12.5328 17.1271 11.4072 19.529 9.98425C21.9251 8.55543 24.0478 7.10328 25.8797 5.6278C27.7524 4.15233 29.7588 2.36193 31.8989 0.262436V20.7383C36.9353 16.2711 42.2741 12.2295 47.9211 8.61958C52.6841 5.38869 57.8368 2.94512 63.385 1.29469H63.4896C63.5245 1.29469 63.5769 1.27719 63.6409 1.2422C65.9904 0.624015 68.148 0.297427 70.1195 0.262436H70.4277C73.353 0.262436 75.8886 0.787309 78.0288 1.83705C80.1748 2.8868 81.9777 4.32145 83.4374 6.14684C84.8332 7.86726 85.973 9.79179 86.857 11.9263C88.1132 14.988 89.003 18.1314 89.5089 21.3682C94.7489 16.691 100.291 12.4453 106.148 8.62541C110.946 5.39453 116.098 2.95095 121.611 1.30052H121.664C121.734 1.26553 121.798 1.24803 121.867 1.24803C124.246 0.629847 126.427 0.303259 128.398 0.268268H128.858C132.056 0.268268 134.778 0.915611 137.023 2.20447C139.268 3.49332 141.111 5.19624 142.559 7.31323C144.008 9.43022 145.153 11.7513 146.002 14.2765C146.851 16.8018 147.468 19.3561 147.84 21.9339C147.945 22.762 148.044 23.5843 148.148 24.4124V24.4649C148.253 25.6371 148.334 27.4392 148.404 29.8828V76.8239C148.439 78.4393 148.794 80.3989 149.474 82.7025C150.155 85.0061 151.428 87.0006 153.301 88.686V88.6685Z" fill="white"/>
<path d="M243.845 88.5402C244.578 89.1934 245.41 89.555 246.346 89.625C247.276 89.6949 248.236 89.6775 249.213 89.5725C249.515 89.5375 249.824 89.52 250.132 89.52V90.5522H240.774C238.175 90.5173 236.355 90.4997 235.319 90.4997C234.767 90.4997 234.22 90.5173 233.668 90.5522C232.534 90.5872 231.405 90.5697 230.277 90.4997C229.143 90.4298 228.044 90.1557 226.974 89.6716C224.13 88.0912 222.432 85.7759 221.885 82.7316C221.333 79.6874 221.164 76.5323 221.379 73.2664C221.408 72.2692 221.426 71.3069 221.426 70.3796C217.39 74.4036 213.034 78.1944 208.358 81.7519C203.682 85.3093 198.698 87.9162 193.406 89.5666C191.417 90.1498 189.399 90.4939 187.352 90.5989C183.961 90.5989 181.013 89.6425 178.524 87.7354C176.029 85.8284 174.069 83.1515 172.632 79.7165C170.981 75.5234 169.986 71.1728 169.649 66.6647C169.311 62.1624 169.207 57.6369 169.329 53.0996C169.358 51.7233 169.375 50.3645 169.375 49.0231V21.1174C169.346 19.6419 169.131 18.4872 168.736 17.6591C168.34 16.8309 167.834 16.2302 167.224 15.8512C166.613 15.4721 166.002 15.2388 165.392 15.1572C164.781 15.0697 164.263 15.0639 163.833 15.1338C163.403 15.2038 163.147 15.2388 163.054 15.2388V14.2066C165.194 14.2765 167.305 13.95 169.381 13.2268C171.795 12.3987 174.075 11.2731 176.215 9.85012C178.355 8.4213 180.268 6.96915 181.949 5.49367C183.63 4.01819 185.433 2.2278 187.358 0.128304V61.4568C187.358 62.524 187.34 63.6204 187.311 64.7577C187.189 66.8921 187.183 69.0325 187.288 71.1786C187.392 73.3306 187.782 75.3134 188.457 77.1388C189.556 79.6815 191.114 81.2212 193.132 81.7577C195.151 82.2884 197.296 82.2476 199.576 81.6294C201.856 81.0112 203.909 80.2356 205.747 79.3083C211.527 76.3515 216.756 72.4675 221.432 67.6503V21.1232C221.432 19.6769 221.222 18.5338 220.815 17.694C220.402 16.8543 219.896 16.2419 219.303 15.8628C218.704 15.4838 218.105 15.2621 217.488 15.1922C216.878 15.1222 216.349 15.1163 215.907 15.1688C215.465 15.2213 215.209 15.2621 215.151 15.2971V14.2124C217.262 14.3174 219.355 14.0083 221.432 13.2851C223.845 12.457 226.131 11.3314 228.288 9.90844C230.446 8.47962 232.365 7.02747 234.046 5.55199C235.697 4.07651 237.5 2.28611 239.454 0.186623L239.408 69.359V71.2136C239.286 74.3803 239.454 77.5179 239.914 80.6263C240.373 83.7406 241.687 86.3766 243.857 88.5461L243.845 88.5402Z" fill="white"/>
<path d="M348.132 88.4119C348.928 89.0651 349.841 89.4267 350.871 89.4967C351.9 89.5667 352.93 89.5491 353.959 89.4442C354.325 89.4092 354.674 89.3917 355.006 89.3917V90.4239H312.202V89.3917C312.534 89.3917 312.883 89.4092 313.249 89.4442C314.279 89.5491 315.308 89.5667 316.337 89.4967C317.367 89.4267 318.28 89.0651 319.077 88.4119C321.002 86.5924 322.281 84.4637 322.909 82.0435C323.537 79.6174 323.857 77.617 323.857 76.0366V19.397C323.56 14.7548 322.345 11.6697 320.222 10.1359C318.1 8.60791 315.517 8.08887 312.482 8.59042C309.446 9.09196 306.433 10.0717 303.45 11.5297C300.461 12.9935 297.96 14.3757 295.936 15.682C293.912 16.9884 292.848 17.7115 292.749 17.8457C290.626 19.5661 288.568 21.3507 286.579 23.211V76.0308C286.579 77.5762 286.893 79.5707 287.527 82.0143C288.155 84.4579 289.434 86.5865 291.359 88.4119C292.156 89.0651 293.069 89.4267 294.098 89.4967C295.128 89.5667 296.157 89.5491 297.186 89.4442C297.553 89.4092 297.902 89.3917 298.233 89.3917V90.4239H255.43V89.3917C255.761 89.3917 256.093 89.4092 256.424 89.4442C257.489 89.5491 258.53 89.5667 259.559 89.4967C260.588 89.4267 261.484 89.0651 262.246 88.4119C264.206 86.6215 265.497 84.5104 266.131 82.0668C266.759 79.6232 267.079 77.6287 267.079 76.0832V20.9424C267.044 19.4961 266.811 18.3531 266.381 17.5133C265.95 16.6735 265.404 16.0669 264.741 15.7054C264.078 15.3438 263.415 15.1222 262.752 15.0347C262.089 14.9472 261.525 14.9297 261.06 14.9822C260.594 15.0347 260.315 15.0755 260.216 15.1105V14.0783C262.537 14.1482 264.828 13.8217 267.085 13.0985C269.707 12.2704 272.179 11.1448 274.5 9.72181C276.82 8.29299 278.896 6.84084 280.722 5.36537C282.548 3.88989 284.502 2.09949 286.596 0V20.4759C291.505 16.0086 296.698 11.9671 302.176 8.35714C306.858 5.12626 311.883 2.68268 317.256 1.03225H317.355C317.419 1.03225 317.471 1.01475 317.506 0.979763C318.67 0.670671 319.78 0.431562 320.839 0.256605C321.903 0.12247 322.915 0.0349915 323.875 0H324.223C328.37 0.0699831 331.72 1.17805 334.279 3.32419C336.832 5.47617 338.774 8.19968 340.1 11.5005C341.426 14.8014 342.339 18.1898 342.839 21.6598C342.973 22.517 343.072 23.3452 343.136 24.1383V24.1908C343.171 24.739 343.2 27.6375 343.235 32.8804C343.27 38.1233 343.293 44.1068 343.311 50.831C343.328 57.5552 343.351 66.1223 343.386 76.544C343.45 78.1594 343.811 80.1189 344.456 82.4225C345.102 84.7262 346.34 86.7207 348.167 88.4061L348.132 88.4119Z" fill="white"/>
<path d="M208.684 20.2193C203.409 19.5486 203.95 19.0062 204.618 24.2958C205.287 19.0062 205.828 19.5486 200.553 20.2193C205.828 20.8899 205.287 21.4323 204.618 16.1428C203.95 21.4323 203.409 20.8899 208.684 20.2193Z" fill="white"/>
<path d="M208.876 39.7445C210.643 43.0921 212.272 45.5823 213.598 47.3144C211.871 45.9905 209.387 44.3576 206.049 42.5614C205.584 43.6228 204.607 51.1459 204.607 51.1459C204.607 51.1459 203.63 43.6228 203.165 42.5614C199.809 44.3751 197.343 46.008 195.616 47.3144C196.942 45.5823 198.564 43.0921 200.356 39.7445C199.297 39.278 193.906 38.339 193.906 38.339C193.906 38.339 199.297 37.3185 200.356 36.8461C198.564 33.4986 196.936 31.0083 195.616 29.2762C197.343 30.5826 199.809 32.2155 203.165 34.0118C203.653 32.9737 204.607 25.952 204.607 25.952C204.607 25.952 205.584 32.9737 206.049 34.0351C209.387 32.2389 211.871 30.6059 213.598 29.2821C212.278 31.0142 210.649 33.5044 208.876 36.8519C209.934 37.3185 215.331 38.2982 215.331 38.2982C215.331 38.2982 209.934 39.278 208.876 39.7504V39.7445Z" fill="white"/>
<path d="M208.684 56.8729C203.409 56.2022 203.95 55.6599 204.618 60.9494C205.287 55.6599 205.828 56.2022 200.553 56.8729C205.828 57.5436 205.287 58.0859 204.618 52.7964C203.95 58.0859 203.409 57.5436 208.684 56.8729Z" fill="white"/>
</g>
<defs>
<clipPath id="clip0_122_291">
<rect width="355" height="117" fill="white"/>
</clipPath>
</defs>
</svg>
