<svg width="92" height="93" viewBox="0 0 92 93" fill="none" xmlns="http://www.w3.org/2000/svg">
<g clip-path="url(#clip0_122_352)">
<path d="M36.05 50.64C38.68 51.6 40.97 52.48 43.29 53.26C44.58 53.7 45.82 53.44 47 52.71C49.44 51.22 50.87 48.95 52.14 46.48C53.92 43.03 55.63 39.54 58.16 36.5C62.57 31.21 69.7 28.79 76.3 30.75C79.84 31.8 82.64 34.12 84.97 36.91C88.43 41.05 90.27 45.97 90.78 51.27C91.18 55.38 91.46 59.57 91.1 63.66C90.63 69.01 88.89 73.99 85.17 78.2C82.8699 80.8 80.32 82.9 77.15 84.17C75.57 84.8 73.81 85.2 72.11 85.29C65.86 85.63 61 82.53 58.24 77.21C56.94 74.71 56.27 72.06 55.9 69.26C55.57 66.74 55.34 64.27 55.99 61.8C56.15 61.2 56.5 60.65 56.77 60.08L57.18 60.18C57.47 61.46 57.75 62.74 58.07 64.01C59.12 68.23 62.15 70.29 66.14 71C71.19 71.91 75.5799 70.37 79.45 67.03C82.71 64.22 84.39 60.67 85.14 56.53C86.09 51.31 85.48 46.31 82.91 41.65C80.51 37.31 75.42 37.36 72.15 39.89C69.8 41.71 68.27 44.16 66.91 46.74C65.3 49.79 63.43 52.65 60.79 54.93C57.47 57.8 53.57 58.29 49.4 57.68C48.58 57.56 47.75 57.51 46.61 57.39C47.26 58.72 47.76 59.74 48.26 60.75C50.72 65.72 51.08 70.97 50.37 76.36C49.73 81.19 47.56 85.23 43.77 88.29C40.12 91.24 35.86 92.46 31.19 92.55C24.57 92.68 18.81 90.59 13.61 86.51C8.27995 82.32 5.06995 76.8 2.78995 70.58C0.459955 64.17 -0.310045 57.55 0.109955 50.76C0.139955 50.28 0.219955 49.78 0.399955 49.34C0.519955 49.07 0.869955 48.89 1.11995 48.67C1.28995 48.95 1.55995 49.2 1.60995 49.5C1.88995 51.14 1.95995 52.82 2.38996 54.42C3.18995 57.42 4.01995 60.44 5.13995 63.33C6.60995 67.15 8.68995 70.69 11.62 73.58C15.13 77.05 19.26 79.46 24.39 79.66C27.19 79.77 30 79.83 32.72 78.94C37.54 77.37 41.18 74.66 42.47 69.41C43.9 63.59 40.47 59.39 35.38 57.96C32.4 57.12 29.6 57.7 26.87 58.82C25.9 59.22 25.5 59.12 25.19 58.14C24.35 55.44 23.48 52.75 22.61 50.06C22.02 48.26 21.38 46.47 20.81 44.66C20.72 44.37 20.74 43.89 20.92 43.72C21.12 43.54 21.6 43.5 21.89 43.6C24.2 44.38 26.55 44.97 29.02 44.77C32.1 44.52 35.09 43.84 37.71 42.12C39.41 41.01 40.32 39.24 40.14 37.26C39.93 35.06 38.91 33.24 36.68 32.24C32.8 30.52 29.04 30.99 25.29 32.56C22.18 33.86 19.24 35.45 16.61 37.58C15.37 38.59 15.03 38.41 14.3 36.95C12.82 34.01 11.27 31.09 9.73995 28.17C8.86996 26.51 8.89995 26.28 10.49 25.28C15.5 22.15 20.72 19.52 26.74 19.07C29.98 18.83 33.22 18.72 36.42 19.59C40.34 20.65 43.02 23.17 44.96 26.57C47.01 30.16 46.93 34.03 46.1 37.91C44.94 43.32 41.61 47.13 36.93 49.87C36.66 50.03 36.46 50.28 36.07 50.63L36.05 50.64Z" fill="#253938"/>
<path d="M60.6 28.45C54.77 28.66 50.19 26.49 46.39 22.43C44.26 20.16 42.24 17.83 40.95 14.95C39.64 12.02 39.03 8.96998 39.35 5.76998C39.38 5.44998 39.73 5.14998 39.94 4.84998C40.17 5.14998 40.51 5.42998 40.6 5.76998C41.85 10.18 44.6 13.5 48.28 16.05C52.42 18.91 57.06 19.8 61.91 18.47C66.31 17.26 70.22 15.06 73.32 11.57C75.58 9.01998 75.44 8.82998 77.61 11.73C79.25 13.92 81 16.03 82.77 18.11C83.54 19.01 83.21 19.55 82.47 20.2C79.46 22.82 76.12 24.93 72.32 26.17C68.45 27.44 64.54 28.64 60.6 28.44V28.45Z" fill="#253938"/>
<path d="M57.3 16.67C56.99 16.5 56.71 16.4 56.51 16.22C53.98 13.94 51.44 11.67 48.96 9.34001C48.73 9.13001 48.66 8.38001 48.84 8.15001C49.71 7.06001 50.68 6.06001 51.64 5.05001C53.11 3.50001 54.59 1.97001 56.09 0.440013C56.56 -0.0399867 56.98 -0.199987 57.61 0.390013C60.09 2.75001 62.62 5.06001 65.15 7.37001C65.85 8.01001 65.82 8.55001 65.17 9.18001C62.85 11.41 60.54 13.66 58.23 15.9C57.95 16.17 57.62 16.41 57.3 16.68V16.67Z" fill="#253938"/>
</g>
<defs>
<clipPath id="clip0_122_352">
<rect width="91.27" height="92.57" fill="white"/>
</clipPath>
</defs>
</svg>
