<svg width="78" height="91" viewBox="0 0 78 91" fill="none" xmlns="http://www.w3.org/2000/svg">
<g clip-path="url(#clip0_122_368)">
<path d="M53.93 49.55C60.31 61.57 66.17 70.51 70.93 76.74C64.7 71.98 55.76 66.11 43.74 59.67C42.06 63.48 38.54 90.5 38.54 90.5C38.54 90.5 35.02 63.48 33.34 59.67C21.25 66.19 12.38 72.05 6.14999 76.74C10.92 70.51 16.78 61.57 23.22 49.55C19.41 47.86 -0.0100098 44.5 -0.0100098 44.5C-0.0100098 44.5 19.41 40.83 23.22 39.14C16.77 27.12 10.91 18.18 6.14999 11.95C12.38 16.64 21.25 22.5 33.34 28.95C35.1 25.21 38.54 0 38.54 0C38.54 0 42.06 25.22 43.74 29.03C55.76 22.58 64.7 16.72 70.93 11.96C66.17 18.19 60.31 27.13 53.93 39.15C57.74 40.84 77.19 44.34 77.19 44.34C77.19 44.34 57.74 47.87 53.93 49.55Z" fill="#F7C6BF"/>
</g>
<defs>
<clipPath id="clip0_122_368">
<rect width="77.19" height="90.49" fill="white"/>
</clipPath>
</defs>
</svg>
